# xmcd
#
# Track frame offsets:
#	150
#	19063
#	36502
#	62423
#	82734
#	93477
#	115895
#	139075
#	158280
#	174992
#	185941
#	207271
#
# Disc length: 3124 seconds
#
# Revision: 22
# Processed by: cddbd v1.5.2PL0 Copyright (c) Steve Scherf et al.
# Submitted via: EasyCDDAExtractor 16.0.6.1
#
DISCID=960c320c
DTITLE=Dixie Chicks - C-097 Home
DYEAR=2002
DGENRE=Country
TTITLE0=Long Time Gone
TTITLE1=Landslide
TTITLE2=Travelin' Soldier
TTITLE3=Truth No. 2
TTITLE4=White Trash Wedding
TTITLE5=A Home
TTITLE6=More Love
TTITLE7=I Believe In Love
TTITLE8=Tortured, Tangled Hearts
TTITLE9=Lil' Jack Slade
TTITLE10=Godspeed (Sweet Dreams)
TTITLE11=Top Of The World
EXTD=YEAR: 2002
EXTT0=
EXTT1=
EXTT2=
EXTT3=
EXTT4=
EXTT5=
EXTT6=
EXTT7=
EXTT8=
EXTT9=
EXTT10=
EXTT11=
PLAYORDER=
